<svg xmlns="http://www.w3.org/2000/svg" viewBox="0 0 449 452"><defs><style>.cls-1{fill:#ff0;}</style></defs><g id="Layer_2" data-name="Layer 2"><g id="Layer_1-2" data-name="Layer 1"><path class="cls-1" d="M50,451.5A49.56,49.56,0,0,1,.5,402V202a49.5,49.5,0,0,1,99,0V402A49.56,49.56,0,0,1,50,451.5Z"/><path d="M50,153a49.05,49.05,0,0,1,49,49V402a49,49,0,0,1-98,0V202a49.05,49.05,0,0,1,49-49m0-1h0A50,50,0,0,0,0,202V402a50,50,0,0,0,50,50h0a50,50,0,0,0,50-50V202a50,50,0,0,0-50-50Z"/><path class="cls-1" d="M399,451.5A49.56,49.56,0,0,1,349.5,402V50a49.5,49.5,0,0,1,99,0V402A49.56,49.56,0,0,1,399,451.5Z"/><path d="M399,1a49.05,49.05,0,0,1,49,49V402a49,49,0,0,1-98,0V50A49.05,49.05,0,0,1,399,1m0-1h0a50,50,0,0,0-50,50V402a50,50,0,0,0,50,50h0a50,50,0,0,0,50-50V50A50,50,0,0,0,399,0Z"/><circle class="cls-1" cx="50" cy="50" r="49.5"/><path d="M50,1A49,49,0,1,1,1,50,49.05,49.05,0,0,1,50,1m0-1a50,50,0,1,0,50,50A50,50,0,0,0,50,0Z"/><path class="cls-1" d="M50,450.5a49.5,49.5,0,0,1,0-99H224a49.5,49.5,0,0,1,0,99Z"/><path d="M224,352a49,49,0,0,1,0,98H50a49,49,0,0,1,0-98H224m0-1H50A50,50,0,0,0,0,401H0a50,50,0,0,0,50,50H224a50,50,0,0,0,50-50h0a50,50,0,0,0-50-50Z"/><path class="cls-1" d="M224,300.5A49.56,49.56,0,0,1,174.5,251V50a49.5,49.5,0,0,1,99,0V251A49.56,49.56,0,0,1,224,300.5Z"/><path d="M224,1a49.05,49.05,0,0,1,49,49V251a49,49,0,0,1-98,0V50A49.05,49.05,0,0,1,224,1m0-1h0a50,50,0,0,0-50,50V251a50,50,0,0,0,50,50h0a50,50,0,0,0,50-50V50A50,50,0,0,0,224,0Z"/></g></g></svg>